<svg width="30" height="27" viewBox="0 0 30 27" fill="none" xmlns="http://www.w3.org/2000/svg">
<path d="M2.47102 0.5H27.6206C28.5521 0.5 29.2584 1.34028 29.0982 2.25799L26.6248 16.4242C26.1652 19.057 23.8794 20.9783 21.2068 20.9783H9.43256C6.8367 20.9783 4.59425 19.1633 4.0533 16.6244L1.00395 2.31258C0.8051 1.37928 1.51677 0.5 2.47102 0.5Z" stroke="white"/>
<path d="M10.1695 26.5C11.3366 26.5 12.1949 25.4659 12.1949 24.3044C12.1949 23.1428 11.3366 22.1087 10.1695 22.1087C9.00244 22.1087 8.14407 23.1428 8.14407 24.3044C8.14407 25.4659 9.00244 26.5 10.1695 26.5Z" stroke="white"/>
<path d="M21.3559 26.5C22.523 26.5 23.3814 25.4659 23.3814 24.3044C23.3814 23.1428 22.523 22.1087 21.3559 22.1087C20.1889 22.1087 19.3305 23.1428 19.3305 24.3044C19.3305 25.4659 20.1889 26.5 21.3559 26.5Z" stroke="white"/>
</svg>
