<svg width="175" height="35" viewBox="0 0 175 35" fill="none" xmlns="http://www.w3.org/2000/svg">
<path d="M15.5979 5.8541C16.3816 3.44208 16.7735 2.23607 17.5 2.23607C18.2265 2.23607 18.6184 3.44208 19.4021 5.8541L20.98 10.7102C21.1966 11.3769 21.3049 11.7102 21.5678 11.9012C21.8306 12.0922 22.1811 12.0922 22.8821 12.0922L27.9881 12.0922C30.5243 12.0922 31.7923 12.0922 32.0169 12.7832C32.2414 13.4742 31.2155 14.2195 29.1637 15.7102L25.0328 18.7115C24.4657 19.1235 24.1822 19.3295 24.0818 19.6385C23.9814 19.9476 24.0897 20.2809 24.3063 20.9476L25.8841 25.8037C26.6678 28.2157 27.0597 29.4217 26.4719 29.8488C25.8841 30.2758 24.8582 29.5305 22.8064 28.0398L18.6756 25.0385C18.1085 24.6265 17.8249 24.4205 17.5 24.4205C17.1751 24.4205 16.8915 24.6265 16.3244 25.0385L12.1936 28.0398C10.1418 29.5305 9.11587 30.2758 8.52809 29.8488C7.9403 29.4217 8.33216 28.2157 9.11587 25.8037L10.6937 20.9476C10.9103 20.2809 11.0186 19.9476 10.9182 19.6385C10.8178 19.3295 10.5343 19.1235 9.96718 18.7115L5.8363 15.7102C3.78452 14.2195 2.75862 13.4742 2.98314 12.7832C3.20765 12.0922 4.47573 12.0922 7.01188 12.0922L12.1179 12.0922C12.8189 12.0922 13.1694 12.0922 13.4322 11.9012C13.6951 11.7102 13.8034 11.3769 14.02 10.7102L15.5979 5.8541Z" fill="black"/>
<path d="M85.5979 5.8541C86.3816 3.44208 86.7735 2.23607 87.5 2.23607C88.2265 2.23607 88.6184 3.44208 89.4021 5.8541L90.98 10.7102C91.1966 11.3769 91.3049 11.7102 91.5678 11.9012C91.8306 12.0922 92.1811 12.0922 92.8821 12.0922L97.9881 12.0922C100.524 12.0922 101.792 12.0922 102.017 12.7832C102.241 13.4742 101.215 14.2195 99.1637 15.7102L95.0328 18.7115C94.4657 19.1235 94.1822 19.3295 94.0818 19.6385C93.9814 19.9476 94.0897 20.2809 94.3063 20.9476L95.8841 25.8037C96.6678 28.2157 97.0597 29.4217 96.4719 29.8488C95.8841 30.2758 94.8582 29.5305 92.8064 28.0398L88.6756 25.0385C88.1085 24.6265 87.8249 24.4205 87.5 24.4205C87.1751 24.4205 86.8915 24.6265 86.3244 25.0385L82.1936 28.0398C80.1418 29.5305 79.1159 30.2758 78.5281 29.8488C77.9403 29.4217 78.3322 28.2157 79.1159 25.8037L80.6937 20.9476C80.9103 20.2809 81.0186 19.9476 80.9182 19.6385C80.8178 19.3295 80.5343 19.1235 79.9672 18.7115L75.8363 15.7102C73.7845 14.2195 72.7586 13.4742 72.9831 12.7832C73.2077 12.0922 74.4757 12.0922 77.0119 12.0922L82.1179 12.0922C82.8189 12.0922 83.1694 12.0922 83.4322 11.9012C83.6951 11.7102 83.8034 11.3769 84.02 10.7102L85.5979 5.8541Z" fill="black"/>
<path d="M50.5979 5.8541C51.3816 3.44208 51.7735 2.23607 52.5 2.23607C53.2265 2.23607 53.6184 3.44208 54.4021 5.8541L55.98 10.7102C56.1966 11.3769 56.3049 11.7102 56.5678 11.9012C56.8306 12.0922 57.1811 12.0922 57.8821 12.0922L62.9881 12.0922C65.5243 12.0922 66.7923 12.0922 67.0169 12.7832C67.2414 13.4742 66.2155 14.2195 64.1637 15.7102L60.0328 18.7115C59.4657 19.1235 59.1822 19.3295 59.0818 19.6385C58.9814 19.9476 59.0897 20.2809 59.3063 20.9476L60.8841 25.8037C61.6678 28.2157 62.0597 29.4217 61.4719 29.8488C60.8841 30.2758 59.8582 29.5305 57.8064 28.0398L53.6756 25.0385C53.1085 24.6265 52.8249 24.4205 52.5 24.4205C52.1751 24.4205 51.8915 24.6265 51.3244 25.0385L47.1936 28.0398C45.1418 29.5305 44.1159 30.2758 43.5281 29.8488C42.9403 29.4217 43.3322 28.2157 44.1159 25.8037L45.6937 20.9476C45.9103 20.2809 46.0186 19.9476 45.9182 19.6385C45.8178 19.3295 45.5343 19.1235 44.9672 18.7115L40.8363 15.7102C38.7845 14.2195 37.7586 13.4742 37.9831 12.7832C38.2077 12.0922 39.4757 12.0922 42.0119 12.0922L47.1179 12.0922C47.8189 12.0922 48.1694 12.0922 48.4322 11.9012C48.6951 11.7102 48.8034 11.3769 49.02 10.7102L50.5979 5.8541Z" fill="black"/>
<path d="M120.598 5.8541C121.382 3.44208 121.773 2.23607 122.5 2.23607C123.227 2.23607 123.618 3.44208 124.402 5.8541L125.98 10.7102C126.197 11.3769 126.305 11.7102 126.568 11.9012C126.831 12.0922 127.181 12.0922 127.882 12.0922L132.988 12.0922C135.524 12.0922 136.792 12.0922 137.017 12.7832C137.241 13.4742 136.215 14.2195 134.164 15.7102L130.033 18.7115C129.466 19.1235 129.182 19.3295 129.082 19.6385C128.981 19.9476 129.09 20.2809 129.306 20.9476L130.884 25.8037C131.668 28.2157 132.06 29.4217 131.472 29.8488C130.884 30.2758 129.858 29.5305 127.806 28.0398L123.676 25.0385C123.108 24.6265 122.825 24.4205 122.5 24.4205C122.175 24.4205 121.892 24.6265 121.324 25.0385L117.194 28.0398C115.142 29.5305 114.116 30.2758 113.528 29.8488C112.94 29.4217 113.332 28.2157 114.116 25.8037L115.694 20.9476C115.91 20.2809 116.019 19.9476 115.918 19.6385C115.818 19.3295 115.534 19.1235 114.967 18.7115L110.836 15.7102C108.785 14.2195 107.759 13.4742 107.983 12.7832C108.208 12.0922 109.476 12.0922 112.012 12.0922L117.118 12.0922C117.819 12.0922 118.169 12.0922 118.432 11.9012C118.695 11.7102 118.803 11.3769 119.02 10.7102L120.598 5.8541Z" fill="black"/>
<path d="M155.598 5.8541C156.382 3.44208 156.773 2.23607 157.5 2.23607C158.227 2.23607 158.618 3.44208 159.402 5.8541L160.98 10.7102C161.197 11.3769 161.305 11.7102 161.568 11.9012C161.831 12.0922 162.181 12.0922 162.882 12.0922L167.988 12.0922C170.524 12.0922 171.792 12.0922 172.017 12.7832C172.241 13.4742 171.215 14.2195 169.164 15.7102L165.033 18.7115C164.466 19.1235 164.182 19.3295 164.082 19.6385C163.981 19.9476 164.09 20.2809 164.306 20.9476L165.884 25.8037C166.668 28.2157 167.06 29.4217 166.472 29.8488C165.884 30.2758 164.858 29.5305 162.806 28.0398L158.676 25.0385C158.108 24.6265 157.825 24.4205 157.5 24.4205C157.175 24.4205 156.892 24.6265 156.324 25.0385L152.194 28.0398C150.142 29.5305 149.116 30.2758 148.528 29.8488C147.94 29.4217 148.332 28.2157 149.116 25.8037L150.694 20.9476C150.91 20.2809 151.019 19.9476 150.918 19.6385C150.818 19.3295 150.534 19.1235 149.967 18.7115L145.836 15.7102C143.785 14.2195 142.759 13.4742 142.983 12.7832C143.208 12.0922 144.476 12.0922 147.012 12.0922L152.118 12.0922C152.819 12.0922 153.169 12.0922 153.432 11.9012C153.695 11.7102 153.803 11.3769 154.02 10.7102L155.598 5.8541Z" fill="black"/>
</svg>
