<svg width="308" height="153" viewBox="0 0 308 153" fill="none" xmlns="http://www.w3.org/2000/svg">
<path d="M179.488 23.6682C165.037 -6.2778 131.51 9.72274 116.554 21.4663C115.583 21.8333 119.248 17.1215 125.877 11.5187C136.949 2.16054 151.517 0.548128 151.517 0.548128C179.488 -3.41531 188.812 15.1651 192.308 22.5672C196.97 32.4368 194.639 53.2105 192.308 62.7521C190.444 75.5232 178.323 92.5565 169.582 102.937C159.384 115.047 145.496 123.855 139.28 126.607C104.783 139.379 90.7194 121.286 88 110.644C105.249 134.424 130.539 122.165 142.194 115.047C155.014 107.218 171.524 84.7712 176.575 74.3121C187.763 52.293 183.179 31.3749 179.488 23.6682Z" fill="white"/>
<path d="M179.488 23.6682C165.037 -6.2778 131.51 9.72274 116.554 21.4663C115.583 21.8333 119.248 17.1215 125.877 11.5187C136.949 2.16054 151.517 0.548128 151.517 0.548128C179.488 -3.41531 188.812 15.1651 192.308 22.5672C196.97 32.4368 194.639 53.2105 192.308 62.7521C190.444 75.5232 178.323 92.5565 169.582 102.937C159.384 115.047 145.496 123.855 139.28 126.607C104.783 139.379 90.7194 121.286 88 110.644C105.249 134.424 130.539 122.165 142.194 115.047C155.014 107.218 171.524 84.7712 176.575 74.3121C187.763 52.293 183.179 31.3749 179.488 23.6682Z" stroke="white"/>
<path d="M136.046 90L124.094 69.48H116.174V90H109.622V39.816H125.822C129.614 39.816 132.806 40.464 135.398 41.76C138.038 43.056 140.006 44.808 141.302 47.016C142.598 49.224 143.246 51.744 143.246 54.576C143.246 58.032 142.238 61.08 140.222 63.72C138.254 66.36 135.278 68.112 131.294 68.976L143.894 90H136.046ZM116.174 64.224H125.822C129.374 64.224 132.038 63.36 133.814 61.632C135.59 59.856 136.478 57.504 136.478 54.576C136.478 51.6 135.59 49.296 133.814 47.664C132.086 46.032 129.422 45.216 125.822 45.216H116.174V64.224ZM191.443 54.36C190.051 51.432 188.035 49.176 185.395 47.592C182.755 45.96 179.683 45.144 176.179 45.144C172.675 45.144 169.507 45.96 166.675 47.592C163.891 49.176 161.683 51.48 160.051 54.504C158.467 57.48 157.675 60.936 157.675 64.872C157.675 68.808 158.467 72.264 160.051 75.24C161.683 78.216 163.891 80.52 166.675 82.152C169.507 83.736 172.675 84.528 176.179 84.528C181.075 84.528 185.107 83.064 188.275 80.136C191.443 77.208 193.291 73.248 193.819 68.256H173.803V62.928H200.803V67.968C200.419 72.096 199.123 75.888 196.915 79.344C194.707 82.752 191.803 85.464 188.203 87.48C184.603 89.448 180.595 90.432 176.179 90.432C171.523 90.432 167.275 89.352 163.435 87.192C159.595 84.984 156.547 81.936 154.291 78.048C152.083 74.16 150.979 69.768 150.979 64.872C150.979 59.976 152.083 55.584 154.291 51.696C156.547 47.76 159.595 44.712 163.435 42.552C167.275 40.344 171.523 39.24 176.179 39.24C181.507 39.24 186.211 40.56 190.291 43.2C194.419 45.84 197.419 49.56 199.291 54.36H191.443Z" fill="white"/>
</svg>
