<svg width="161" height="103" viewBox="0 0 161 103" fill="none" xmlns="http://www.w3.org/2000/svg">
<path d="M103.837 25.9833C93.4377 4.49532 69.3112 15.9766 58.548 24.4033C57.8491 24.6666 60.4872 21.2857 65.2576 17.2653C73.2252 10.5503 83.7088 9.39331 83.7088 9.39331C103.837 6.54932 110.547 19.8818 113.063 25.1933C116.418 32.2753 114.741 47.1816 113.063 54.0282C111.721 63.1922 102.999 75.4146 96.7086 82.8631C89.37 91.5531 79.3756 97.8731 74.9025 99.8481C50.0772 109.012 39.957 96.0298 38 88.3931C50.4127 105.457 68.6123 96.6601 76.9993 91.5531C86.2249 85.9354 98.1064 69.8282 101.741 62.3232C109.792 46.5232 106.493 31.5133 103.837 25.9833Z" fill="black"/>
<path d="M103.837 25.9833C93.4377 4.49532 69.3112 15.9766 58.548 24.4033C57.8491 24.6666 60.4872 21.2857 65.2576 17.2653C73.2252 10.5503 83.7088 9.39331 83.7088 9.39331C103.837 6.54932 110.547 19.8818 113.063 25.1933C116.418 32.2753 114.741 47.1816 113.063 54.0282C111.721 63.1922 102.999 75.4146 96.7086 82.8631C89.37 91.5531 79.3756 97.8731 74.9025 99.8481C50.0772 109.012 39.957 96.0298 38 88.3931C50.4127 105.457 68.6123 96.6601 76.9993 91.5531C86.2249 85.9354 98.1064 69.8282 101.741 62.3232C109.792 46.5232 106.493 31.5133 103.837 25.9833Z" stroke="white"/>
<path d="M62.5461 79L50.5941 58.48H42.6741V79H36.1221V28.816H52.3221C56.1141 28.816 59.3061 29.464 61.8981 30.76C64.5381 32.056 66.5061 33.808 67.8021 36.016C69.0981 38.224 69.7461 40.744 69.7461 43.576C69.7461 47.032 68.7381 50.08 66.7221 52.72C64.7541 55.36 61.7781 57.112 57.7941 57.976L70.3941 79H62.5461ZM42.6741 53.224H52.3221C55.8741 53.224 58.5381 52.36 60.3141 50.632C62.0901 48.856 62.9781 46.504 62.9781 43.576C62.9781 40.6 62.0901 38.296 60.3141 36.664C58.5861 35.032 55.9221 34.216 52.3221 34.216H42.6741V53.224ZM117.943 43.36C116.551 40.432 114.535 38.176 111.895 36.592C109.255 34.96 106.183 34.144 102.679 34.144C99.1748 34.144 96.0068 34.96 93.1748 36.592C90.3908 38.176 88.1828 40.48 86.5508 43.504C84.9668 46.48 84.1748 49.936 84.1748 53.872C84.1748 57.808 84.9668 61.264 86.5508 64.24C88.1828 67.216 90.3908 69.52 93.1748 71.152C96.0068 72.736 99.1748 73.528 102.679 73.528C107.575 73.528 111.607 72.064 114.775 69.136C117.943 66.208 119.791 62.248 120.319 57.256H100.303V51.928H127.303V56.968C126.919 61.096 125.623 64.888 123.415 68.344C121.207 71.752 118.303 74.464 114.703 76.48C111.103 78.448 107.095 79.432 102.679 79.432C98.0228 79.432 93.7748 78.352 89.9348 76.192C86.0948 73.984 83.0468 70.936 80.7908 67.048C78.5828 63.16 77.4788 58.768 77.4788 53.872C77.4788 48.976 78.5828 44.584 80.7908 40.696C83.0468 36.76 86.0948 33.712 89.9348 31.552C93.7748 29.344 98.0228 28.24 102.679 28.24C108.007 28.24 112.711 29.56 116.791 32.2C120.919 34.84 123.919 38.56 125.791 43.36H117.943Z" fill="black"/>
<path d="M62.5461 79L61.682 79.5033L61.9713 80H62.5461V79ZM50.5941 58.48L51.4582 57.9767L51.1689 57.48H50.5941V58.48ZM42.6741 58.48V57.48H41.6741V58.48H42.6741ZM42.6741 79V80H43.6741V79H42.6741ZM36.1221 79H35.1221V80H36.1221V79ZM36.1221 28.816V27.816H35.1221V28.816H36.1221ZM61.8981 30.76L61.4509 31.6544L61.4575 31.6577L61.8981 30.76ZM66.7221 52.72L65.9273 52.113L65.9204 52.1223L66.7221 52.72ZM57.7941 57.976L57.5822 56.9987L56.2197 57.2942L56.9364 58.4901L57.7941 57.976ZM70.3941 79V80H72.1593L71.2519 78.4859L70.3941 79ZM42.6741 53.224H41.6741V54.224H42.6741V53.224ZM60.3141 50.632L61.0115 51.3488L61.0212 51.3391L60.3141 50.632ZM60.3141 36.664L59.6274 37.3911L59.6375 37.4003L60.3141 36.664ZM42.6741 34.216V33.216H41.6741V34.216H42.6741ZM63.4102 78.4967L51.4582 57.9767L49.73 58.9833L61.682 79.5033L63.4102 78.4967ZM50.5941 57.48H42.6741V59.48H50.5941V57.48ZM41.6741 58.48V79H43.6741V58.48H41.6741ZM42.6741 78H36.1221V80H42.6741V78ZM37.1221 79V28.816H35.1221V79H37.1221ZM36.1221 29.816H52.3221V27.816H36.1221V29.816ZM52.3221 29.816C56.005 29.816 59.0338 30.4459 61.4509 31.6544L62.3453 29.8656C59.5784 28.4821 56.2233 27.816 52.3221 27.816V29.816ZM61.4575 31.6577C63.9484 32.8805 65.757 34.5073 66.9397 36.5222L68.6645 35.5098C67.2552 33.1087 65.1278 31.2315 62.3388 29.8623L61.4575 31.6577ZM66.9397 36.5222C68.1363 38.5608 68.7461 40.9026 68.7461 43.576H70.7461C70.7461 40.5854 70.06 37.8872 68.6645 35.5098L66.9397 36.5222ZM68.7461 43.576C68.7461 46.8222 67.8046 49.6548 65.9274 52.1131L67.5169 53.3269C69.6717 50.5052 70.7461 47.2418 70.7461 43.576H68.7461ZM65.9204 52.1223C64.1288 54.5257 61.3885 56.1732 57.5822 56.9987L58.0061 58.9533C62.1677 58.0508 65.3795 56.1943 67.5239 53.3177L65.9204 52.1223ZM56.9364 58.4901L69.5364 79.5141L71.2519 78.4859L58.6519 57.4619L56.9364 58.4901ZM70.3941 78H62.5461V80H70.3941V78ZM42.6741 54.224H52.3221V52.224H42.6741V54.224ZM52.3221 54.224C56.0215 54.224 58.981 53.3244 61.0115 51.3487L59.6168 49.9153C58.0953 51.3956 55.7267 52.224 52.3221 52.224V54.224ZM61.0212 51.3391C63.0159 49.3445 63.9781 46.7217 63.9781 43.576H61.9781C61.9781 46.2863 61.1644 48.3675 59.607 49.9249L61.0212 51.3391ZM63.9781 43.576C63.9781 40.3905 63.0195 37.7919 60.9908 35.9277L59.6375 37.4003C61.1607 38.8001 61.9781 40.8095 61.9781 43.576H63.9781ZM61.0008 35.937C59.0112 34.0579 56.0492 33.216 52.3221 33.216V35.216C55.795 35.216 58.1611 36.0061 59.6275 37.391L61.0008 35.937ZM52.3221 33.216H42.6741V35.216H52.3221V33.216ZM41.6741 34.216V53.224H43.6741V34.216H41.6741ZM117.943 43.36L117.04 43.7894L117.311 44.36H117.943V43.36ZM111.895 36.592L111.369 37.4427L111.38 37.4495L111.895 36.592ZM93.1748 36.592L93.6693 37.4612L93.6741 37.4584L93.1748 36.592ZM86.5508 43.504L85.6708 43.0291L85.6681 43.0341L86.5508 43.504ZM86.5508 64.24L85.668 64.7099L85.674 64.7208L86.5508 64.24ZM93.1748 71.152L92.6691 72.0147L92.6778 72.0198L92.6867 72.0248L93.1748 71.152ZM114.775 69.136L115.454 69.8704L115.454 69.8704L114.775 69.136ZM120.319 57.256L121.313 57.3612L121.43 56.256H120.319V57.256ZM100.303 57.256H99.3028V58.256H100.303V57.256ZM100.303 51.928V50.928H99.3028V51.928H100.303ZM127.303 51.928H128.303V50.928H127.303V51.928ZM127.303 56.968L128.299 57.0606L128.303 57.0144V56.968H127.303ZM123.415 68.344L124.254 68.8878L124.258 68.8824L123.415 68.344ZM114.703 76.48L115.183 77.3575L115.191 77.3525L114.703 76.48ZM89.9348 76.192L89.4363 77.0589L89.4446 77.0636L89.9348 76.192ZM80.7908 67.048L79.9212 67.5418L79.9259 67.5499L80.7908 67.048ZM80.7908 40.696L79.9232 40.1987L79.9213 40.2022L80.7908 40.696ZM89.9348 31.552L90.4251 32.4236L90.4333 32.4189L89.9348 31.552ZM116.791 32.2L116.248 33.0396L116.252 33.0424L116.791 32.2ZM125.791 43.36V44.36H127.254L126.722 42.9967L125.791 43.36ZM118.846 42.9306C117.374 39.8347 115.227 37.4253 112.409 35.7345L111.38 37.4495C113.842 38.9266 115.728 41.0293 117.04 43.7894L118.846 42.9306ZM112.421 35.7414C109.603 33.9996 106.344 33.144 102.679 33.144V35.144C106.022 35.144 108.907 35.9204 111.369 37.4426L112.421 35.7414ZM102.679 33.144C99.0126 33.144 95.6703 33.9998 92.6755 35.7256L93.6741 37.4584C96.3433 35.9202 99.337 35.144 102.679 35.144V33.144ZM92.6803 35.7228C89.7215 37.4063 87.3851 39.8526 85.6708 43.0291L87.4308 43.9789C88.9806 41.1074 91.0602 38.9457 93.6693 37.4612L92.6803 35.7228ZM85.6681 43.0341C83.9951 46.1773 83.1748 49.7997 83.1748 53.872H85.1748C85.1748 50.0723 85.9385 46.7827 87.4336 43.9738L85.6681 43.0341ZM83.1748 53.872C83.1748 57.9443 83.9951 61.5667 85.6681 64.7098L87.4336 63.7701C85.9385 60.9613 85.1748 57.6717 85.1748 53.872H83.1748ZM85.674 64.7208C87.3882 67.8468 89.7209 70.2865 92.6691 72.0147L93.6805 70.2893C91.0607 68.7535 88.9774 66.5852 87.4276 63.7592L85.674 64.7208ZM92.6867 72.0248C95.6796 73.6988 99.0179 74.528 102.679 74.528V72.528C99.3317 72.528 96.334 71.7732 93.663 70.2792L92.6867 72.0248ZM102.679 74.528C107.79 74.528 112.076 72.9924 115.454 69.8704L114.096 68.4016C111.138 71.1356 107.36 72.528 102.679 72.528V74.528ZM115.454 69.8704C118.828 66.7514 120.764 62.5524 121.313 57.3612L119.324 57.1508C118.817 61.9436 117.057 65.6646 114.096 68.4016L115.454 69.8704ZM120.319 56.256H100.303V58.256H120.319V56.256ZM101.303 57.256V51.928H99.3028V57.256H101.303ZM100.303 52.928H127.303V50.928H100.303V52.928ZM126.303 51.928V56.968H128.303V51.928H126.303ZM126.307 56.8754C125.938 60.8465 124.693 64.4854 122.572 67.8056L124.258 68.8824C126.552 65.2906 127.9 61.3455 128.299 57.0606L126.307 56.8754ZM122.576 67.8003C120.457 71.0695 117.675 73.6696 114.214 75.6075L115.191 77.3525C118.931 75.2584 121.956 72.4345 124.254 68.8877L122.576 67.8003ZM114.223 75.6026C110.781 77.4841 106.94 78.432 102.679 78.432V80.432C107.249 80.432 111.424 79.4119 115.182 77.3574L114.223 75.6026ZM102.679 78.432C98.1844 78.432 94.1068 77.3914 90.4251 75.3204L89.4446 77.0636C93.4428 79.3126 97.8612 80.432 102.679 80.432V78.432ZM90.4333 75.3251C86.7477 73.2059 83.8251 70.2848 81.6558 66.5461L79.9259 67.5499C82.2685 71.5872 85.4419 74.7621 89.4363 77.0589L90.4333 75.3251ZM81.6604 66.5542C79.5458 62.8308 78.4788 58.6118 78.4788 53.872H76.4788C76.4788 58.9242 77.6198 63.4892 79.9213 67.5418L81.6604 66.5542ZM78.4788 53.872C78.4788 49.1322 79.5458 44.9132 81.6604 41.1898L79.9213 40.2022C77.6198 44.2548 76.4788 48.8198 76.4788 53.872H78.4788ZM81.6584 41.1933C83.8275 37.4089 86.7471 34.4924 90.4251 32.4236L89.4446 30.6804C85.4425 32.9316 82.2661 36.1111 79.9232 40.1987L81.6584 41.1933ZM90.4333 32.4189C94.1138 30.3026 98.1885 29.24 102.679 29.24V27.24C97.8572 27.24 93.4359 28.3854 89.4363 30.6851L90.4333 32.4189ZM102.679 29.24C107.833 29.24 112.345 30.5143 116.248 33.0396L117.334 31.3604C113.077 28.6057 108.18 27.24 102.679 27.24V29.24ZM116.252 33.0424C120.192 35.5623 123.06 39.1098 124.859 43.7233L126.722 42.9967C124.778 38.0102 121.646 34.1177 117.33 31.3575L116.252 33.0424ZM125.791 42.36H117.943V44.36H125.791V42.36Z" fill="black"/>
</svg>
